<?xml version="1.0" encoding="utf-8"?>
<!-- Generator: Adobe Illustrator 26.2.1, SVG Export Plug-In . SVG Version: 6.00 Build 0)  -->
<svg version="1.1" id="Layer_1" xmlns="http://www.w3.org/2000/svg" xmlns:xlink="http://www.w3.org/1999/xlink" x="0px" y="0px"
	 viewBox="0 0 1080 241.1" style="enable-background:new 0 0 1080 241.1;" xml:space="preserve">
<style type="text/css">
	.st0{fill:#9900F0;}
</style>
<g>
	<g>
		<path d="M30.3,103.2l0-59.2c0-18,6-31,15.4-36.5S63.1,0,73.3,0c12.8,0,23.2,2.9,31.8,8.3L96,27.9c-5-2.3-10.4-3.6-16.7-3.6
			c-13.8,0-20.9,7-20.9,21.1l0,57.9"/>
		<polyline points="58.5,136 58.5,187.4 30.3,187.4 30.3,136 		"/>
		<path d="M340.9,49.8c3.7,0,6.3,0.3,8.1,0.5v26.8c-1.8-0.3-4.2-0.5-7.3-0.5c-13,0-24.2,4.4-33.4,13c-9.1,8.6-14.6,19.8-16.2,33.9
			v63.8H264V51.9h28.1v34.7C298.2,65.4,316.7,49.8,340.9,49.8z"/>
		<path d="M433.4,49.3c30.8,0,72.2,23.5,65.9,80.8H392.2c4.2,23.2,21.9,36,44.6,36c14.3,0,26.8-4.2,37.5-12.5l15.9,15.1
			C477.5,182.9,459.5,190,436,190c-11.7,0-22.9-2.3-33.6-7.3c-21.1-10.2-37.8-32.8-37.8-62.8c0-22.7,9.4-42,22.9-53.2
			C401.4,55.5,417.8,49.3,433.4,49.3z M433.4,73.5c-18.8,0-36.7,13-40.9,35.7h81.6c-1.3-11.2-6-20.1-14.1-26.3
			C451.9,76.6,443.1,73.5,433.4,73.5z"/>
		<path d="M611.2,81.3l-23.5,6.5c-4.7-10.7-12.2-15.9-22.4-15.9c-10.7,0-18.5,6-18.5,15.1c0,7.6,5.2,13.3,15.6,16.9l14.9,5.2
			c25.8,9.1,38.8,18.2,38.8,39.9c0,12.8-4.9,22.9-14.9,30.2c-9.6,7-21.6,10.7-35.7,10.7c-26.8,0-45.9-13.8-51.1-37l22.4-6.8
			c4.2,12.5,14.9,21.1,28.7,21.1c12.8,0,23.2-7.3,23.2-17.7c0-7.6-6-13.6-17.7-18l-15.4-5.5c-24-8.6-36-21.6-36-39.4
			c0-11.2,4.2-20.1,12.8-27.1c8.6-7,19.3-10.4,31.8-10.4C587.2,49.3,603.6,61.5,611.2,81.3z"/>
		<path d="M638.3,3.1h28.1v27.1h-28.1V3.1z M638.3,51.9h28.1v135.5h-28.1V51.9z"/>
		<path d="M802.4,74V51.9h28.1v135.5c0,40.9-37.8,53.7-65.4,53.7c-16.7,0-29.7-3.1-38.8-9.1v-23.5c8.9,6,21.9,8.9,38.8,8.9
			c23.2,0,37.3-12.2,37.3-30v-22.2h-1.6c-6.3,12.8-23.5,24.8-45.1,24.8c-15.6,0-31.8-6-45.1-17.2c-13.3-11.2-22.2-30.5-22.2-53.2
			c0-22.7,8.9-42,22.2-53.2c13.3-11.2,29.5-17.2,45.1-17.2c21.6,0,38.8,12,45.1,24.8H802.4z M759.4,165c11.7,0,21.9-3.9,30.5-12
			c8.9-8.1,13.3-19,13.3-33.4c0-14.3-4.4-25.3-13.3-33.4c-8.6-8.1-18.8-12-30.5-12c-11.5,0-21.6,3.9-30.5,12c-8.6,8.1-13,19-13,33.4
			c0,14.3,4.4,25.3,13,33.4C737.8,161.1,748,165,759.4,165z"/>
		<path d="M934.1,49.3c14.1,0,26.1,5,36,15.1c9.9,10.2,14.9,25,14.9,44.6v78.4h-28.1v-76.9c0-24.2-13.5-36.5-32.3-36.5
			c-10.4,0-19,3.6-25.8,10.9c-6.5,7-10.4,14.3-11.2,21.4v81h-28.1V3.1h28.1V80C890.3,72.2,904.3,49.3,934.1,49.3z"/>
		<path d="M1080,51.9v23.5h-28.7v75.8c0,8.6,4.2,12.8,12.8,12.8c4.9,0,10.2-1,15.9-3.1V184c-6.5,3.4-14.3,5-23.5,5
			c-20.9,0-33.4-8.3-33.4-31.5V75.3h-18.8V51.9h18.8V17.2h28.1v34.7H1080z"/>
		<path class="st0" d="M235.4,89.1c-8.6-18.8-23.5-29.2-39.9-35.2c-15.9-6.3-31.8-6.3-48.2,0c-15.9,6-31,16.4-39.6,35.2
			c-2.7,5.8-4.5,12.2-5.5,18.8H0v23.5h102c1,6.8,2.9,13.3,5.6,19.2c8.6,18.5,23.7,28.9,39.6,34.9c16.4,6,32.3,6,48.2,0
			c16.4-6,31.3-16.4,39.9-34.9C244,132.1,244,107.6,235.4,89.1z M201.2,153c-8.6,8.1-18.5,12-29.7,12c-11.2,0-21.1-3.9-30-12
			c-8.6-8.1-13-19-13-33.1c0-14.3,4.4-25.3,13-33.4c8.9-8.1,18.8-12.2,30-12.2c11.2,0,21.1,4.2,29.7,12.2c8.9,8.1,13.3,19,13.3,33.4
			C214.5,134,210.1,144.9,201.2,153z"/>
	</g>
	<path class="st0" d="M203.5,131.5c0.2-0.5,0.5-1,0.7-1.5c1.8-3.9,2.6-8.3,2.6-13c0-4.6-0.9-8.9-2.6-12.9c0,0,0,0,0,0
		c-0.8-1.7-3.1-2-4.3-0.5l-5.2,6.3c-0.5,0.6-0.7,1.4-0.5,2.2c0.3,1.6,0.5,3.2,0.5,5v2.2c0,1.7-0.2,3.4-0.5,5c-0.2,0.8,0,1.6,0.5,2.2
		l5.2,6.3c1.2,1.5,3.5,1.2,4.3-0.5c0,0,0,0,0,0c1.8-3.9,2.6-8.2,2.6-12.9c0-4.7-0.9-9.1-2.6-13"/>
	<path class="st0" d="M197.4,99.8l-1.6,1.9c-1.7,2.1-4.8,2.2-6.6,0.2c-0.2-0.2-0.4-0.5-0.7-0.7c-1.9-1.9-4.2-3.5-6.8-4.6
		c-2.6-1.1-5.3-1.7-8.2-1.7c-2.9,0-5.7,0.6-8.2,1.7c-2.6,1.1-4.8,2.6-6.7,4.6c-0.1,0.1-0.1,0.1-0.2,0.2c-1.4,1.5-3.7,1.9-5.4,0.8
		l-2.2-1.3c-2.5-1.4-3-4.9-0.9-6.9c0.1-0.1,0.2-0.2,0.2-0.2c3-2.9,6.5-5.1,10.5-6.7c4-1.6,8.4-2.4,13-2.4c4.6,0,9,0.8,13,2.4
		c4,1.6,7.5,3.8,10.6,6.7c0,0,0,0,0,0C198.8,95.5,198.9,98,197.4,99.8z"/>
</g>
<text transform="matrix(1 0 0 1 -9970.0117 -7832.3169)" style="fill:#FFFFFF; font-family:'Graphie-Regular'; font-size:114.7168px;">FORESIGHT</text>
</svg>
